<?xml version="1.0" encoding="UTF-8"?>
<svg id="Layer_1" data-name="Layer 1" xmlns="http://www.w3.org/2000/svg" xmlns:xlink="http://www.w3.org/1999/xlink" viewBox="0 0 168 49">
  <defs>
    <style>
      .cls-1 {
        clip-path: url(#clippath);
      }

      .cls-2 {
        fill: none;
      }

      .cls-2, .cls-3, .cls-4, .cls-5 {
        stroke-width: 0px;
      }

      .cls-6 {
        mask: url(#mask);
      }

      .cls-3 {
        fill: url(#linear-gradient);
        fill-rule: evenodd;
      }

      .cls-4 {
        fill: #1e1e1e;
      }

      .cls-5 {
        fill: #fff;
      }
    </style>
    <clipPath id="clippath">
      <rect class="cls-2" width="168" height="49"/>
    </clipPath>
    <mask id="mask" x="92" y="0" width="76" height="49" maskUnits="userSpaceOnUse">
      <g id="mask0_565_41" data-name="mask0 565 41">
        <path class="cls-5" d="m92,49h76V0h-76v49Z"/>
      </g>
    </mask>
    <linearGradient id="linear-gradient" x1="92" y1="27.21" x2="168" y2="27.21" gradientTransform="translate(0 51.71) scale(1 -1)" gradientUnits="userSpaceOnUse">
      <stop offset="0" stop-color="#804fa0"/>
      <stop offset="1" stop-color="#e6328b"/>
    </linearGradient>
  </defs>
  <g class="cls-1">
    <path class="cls-4" d="m14.52,25.99h-5.45v-3.28c0-1.15-.36-1.81-1.45-1.81-1.18,0-1.45.66-1.45,1.81,0,3.94,8.34,5.09,8.34,12.32,0,4.4-2.36,6.44-6.93,6.44-3.48,0-6.86-1.18-6.86-5.22v-4.34h5.45v4.04c0,1.38.43,1.77,1.45,1.77.89,0,1.45-.39,1.45-1.77,0-5.29-8.34-5.39-8.34-12.94,0-4.24,2.79-5.85,7-5.85,3.68,0,6.8,1.25,6.8,5.16v3.68Zm6.89-5.02v7.65h.85c1.9,0,2.04-1.05,2.04-3.81s-.13-3.84-2.04-3.84h-.85Zm0,20.03h-5.45v-23.38h6.67c4.34,0,7.13.99,7.13,5.02v4.27c0,3.51-3.12,5.06-6.34,5.06h-2v9.03Zm21.01,0h-11.3v-23.38h11.3v3.55h-5.85v5.12h5.65v3.55h-5.65v7.62h5.85v3.55Zm12.16,0h-11.3v-23.38h11.3v3.55h-5.85v5.12h5.65v3.55h-5.65v7.62h5.85v3.55Zm9.3-9.1h5.42v3.09c0,4.37-2.33,6.47-6.93,6.47-3.61,0-6.86-1.48-6.86-6.83v-10.64c0-5.35,3.25-6.83,6.86-6.83,3.97,0,6.93,1.18,6.93,6.24v2.56h-5.45v-3.22c0-.95-.3-1.84-1.48-1.84-1.12,0-1.41.89-1.41,1.84v13.14c0,.95.3,1.84,1.41,1.84,1.18,0,1.48-.89,1.48-1.84l.03-3.97Zm12.31,9.1h-5.45v-23.38h5.45v8.67h2.89v-8.67h5.45v23.38h-5.45v-11.17h-2.89v11.17Z"/>
    <g class="cls-6">
      <path class="cls-3" d="m160.4,49h-60.8c-4.2,0-7.6-2.19-7.6-4.9V14.7c0-2.71,3.4-4.9,7.6-4.9h53.2l15.2-9.8v44.1c0,2.71-3.4,4.9-7.6,4.9Z"/>
    </g>
    <path class="cls-5" d="m108.86,40.95h-5.45v-23.38h5.45v8.67h2.89v-8.67h5.45v23.38h-5.45v-11.17h-2.89v11.17Zm21.01,0h-11.3v-23.38h11.3v3.55h-5.85v5.12h5.65v3.55h-5.65v7.62h5.85v3.55Zm12.22,0h-11.36v-23.38h5.45v19.84h5.91v3.55Zm6.31-20.03v7.65h.85c1.9,0,2.04-1.05,2.04-3.81s-.13-3.84-2.04-3.84h-.85Zm0,20.03h-5.45v-23.38h6.67c4.33,0,7.13.99,7.13,5.02v4.27c0,3.51-3.12,5.06-6.34,5.06h-2v9.03Z"/>
  </g>
</svg>